<?xml version="1.0" encoding="UTF-8"?>
<svg width="40px" height="40px" viewBox="0 0 40 40" version="1.1" xmlns="http://www.w3.org/2000/svg" xmlns:xlink="http://www.w3.org/1999/xlink">
    <title>Group 16</title>
    <defs>
        <filter id="filter-1">
            <feColorMatrix in="SourceGraphic" type="matrix" values="0 0 0 0 1.000000 0 0 0 0 1.000000 0 0 0 0 1.000000 0 0 0 1.000000 0"></feColorMatrix>
        </filter>
    </defs>
    <g id="Page-1" stroke="none" stroke-width="1" fill="none" fill-rule="evenodd">
        <g id="00---Tatsu---Interactions-&amp;-Changes" transform="translate(-151.000000, -1101.000000)">
            <g id="Group-20-Copy" transform="translate(151.000000, 781.000000)">
                <g id="Group-16" transform="translate(0.000000, 320.000000)">
                    <rect id="Rectangle-Copy-14" x="0" y="0" width="40" height="40"></rect>
                    <g filter="url(#filter-1)" id="noun_fetus_3344416">
                        <g transform="translate(11.000000, 11.000000)">
                            <path d="M9.075,0.275 C4.22235,0.275 0.275,4.2229 0.275,9.075 C0.275,13.9271 4.22235,17.875 9.075,17.875 C13.9271,17.875 17.875,13.9271 17.875,9.075 C17.875,4.2229 13.9271,0.275 9.075,0.275 Z M9.075,16.7178 C4.8598,16.7178 1.4311,13.2891 1.4311,9.075 C1.4311,7.94695 1.683,6.8794 2.12355,5.9147 C2.82095,6.02965 4.1723,6.4207 5.14745,7.76875 C6.02305,8.9793 6.9597,9.7251 7.8496,10.25475 C7.61255,10.57375 7.5592,10.81465 7.5592,10.81465 C7.04495,9.3324 5.91965,9.5634 5.6287,10.0133 C5.3383,10.4643 4.86805,11.7018 4.54575,11.83105 C4.224,11.95865 3.7114,11.22715 3.3517,11.69025 C3.0657,12.05655 3.7114,12.8964 4.42035,13.3144 C5.1282,13.7335 6.2722,12.023 6.2722,12.023 C6.2986,12.7963 6.5956,13.5432 6.87775,13.87815 C9.0541,16.4626 12.4806,12.5345 12.76385,10.40215 C12.95085,8.9969 12.8238,7.8958 12.9305,7.23635 C13.03555,6.5769 13.46895,6.03625 13.46895,5.36195 C13.46895,4.0095 12.5521,3.05855 11.20075,3.05855 C9.84885,3.05855 8.75325,4.15525 8.75325,5.5055 C8.75325,6.7001 9.42975,8.17795 10.7393,7.90955 C10.79485,8.21975 10.33945,8.7681 9.85655,8.6768 C9.63765,8.635 9.1454,8.38585 8.8561,7.96785 C8.34515,7.22755 8.3325,6.6132 8.22085,5.94715 C8.1081,5.28 7.66645,5.71615 7.66645,5.71615 C7.4052,5.38615 7.1896,5.4582 6.88765,5.786 C6.16,6.5714 7.31995,7.3964 7.31995,7.3964 C7.54325,7.5801 7.61145,8.29015 7.81,8.6779 C8.11415,9.2763 8.62345,9.5491 8.62345,9.5491 C8.47275,9.647 8.34955,9.74435 8.23735,9.84225 C7.1478,9.2136 6.3393,8.47715 5.5935,7.447 C4.5716,6.0346 3.20045,5.5605 2.37655,5.39935 C3.6784,3.0371 6.19245,1.4311 9.07555,1.4311 C13.28965,1.4311 16.7189,4.8598 16.7189,9.075 C16.71835,13.2891 13.2891,16.7178 9.075,16.7178 Z" id="Shape" fill="#000000" fill-rule="nonzero"></path>
                        </g>
                    </g>
                </g>
            </g>
        </g>
    </g>
</svg>