<?xml version="1.0" encoding="UTF-8"?>
<svg width="40px" height="40px" viewBox="0 0 40 40" version="1.1" xmlns="http://www.w3.org/2000/svg" xmlns:xlink="http://www.w3.org/1999/xlink">
    <title>Group 18</title>
    <defs>
        <filter id="filter-1">
            <feColorMatrix in="SourceGraphic" type="matrix" values="0 0 0 0 1.000000 0 0 0 0 1.000000 0 0 0 0 1.000000 0 0 0 1.000000 0"></feColorMatrix>
        </filter>
    </defs>
    <g id="Page-1" stroke="none" stroke-width="1" fill="none" fill-rule="evenodd">
        <g id="00---Tatsu---Interactions-&amp;-Changes" transform="translate(-151.000000, -1181.000000)">
            <g id="Group-20-Copy" transform="translate(151.000000, 781.000000)">
                <g id="Group-18" transform="translate(0.000000, 400.000000)">
                    <rect id="Rectangle-Copy-16" x="0" y="0" width="40" height="40"></rect>
                    <g filter="url(#filter-1)" id="noun_Corn_3018556-Copy">
                        <g transform="translate(14.000000, 12.000000)" id="Group" fill="#000000" fill-rule="nonzero">
                            <g transform="translate(0.000000, 5.742581)" id="Path">
                                <path d="M11.7168447,0.23621371 C11.6154419,0.104535 11.4583814,0.0273774194 11.2918772,0.0273774194 L9.34372465,0.0273774194 C7.16453581,0.0273774194 5.39162791,1.93471548 5.39162791,4.27919081 L5.39162791,10.8174194 C5.39162791,11.1124277 5.6315386,11.3516129 5.92744186,11.3516129 L7.06055442,11.3516129 C9.23974326,11.3516129 11.0126512,9.44427484 11.0126512,7.09979952 L11.0126512,4.96078839 C11.0126512,4.10601194 11.124134,3.25671097 11.3439851,2.43645677 L11.8095405,0.699459677 C11.852506,0.539068065 11.8182809,0.367892419 11.7168447,0.23621371 Z"></path>
                                <path d="M4.32,10.8174194 L4.32,4.27919081 C4.32,3.5973929 4.44189767,2.94520935 4.66355721,2.3455771 C4.04385488,1.91094387 3.3044986,1.65793645 2.51119256,1.65793645 L0.563006512,1.65793645 C0.396502326,1.65793645 0.23944186,1.73512742 0.13803907,1.86677274 C0.0366362791,1.99841806 0.00237767442,2.1696271 0.0453767442,2.33001871 L0.510932093,4.06701581 C0.730783256,4.88727 0.842266047,5.73657097 0.842266047,6.59134742 L0.842266047,7.09979952 C0.842266047,9.30301403 2.4079814,11.1200066 4.40519442,11.3309797 C4.35024,11.1696532 4.32,10.9970419 4.32,10.8174194 Z"></path>
                            </g>
                            <path d="M2.51115907,6.33213 C3.44283907,6.33213 4.3467907,6.60333339 5.13661395,7.11762823 C6.0145786,5.69603903 7.51696744,4.74474048 9.22802233,4.70354081 C8.91721674,3.31580613 8.38950698,2.03677984 7.67037767,0.958142903 C7.27035907,0.358176774 6.6188093,0 5.92744186,0 C5.23607442,0 4.58452465,0.358176774 4.18453953,0.958142903 C3.19137488,2.447775 2.56346791,4.31955581 2.36769488,6.33213 L2.51115907,6.33213 Z" id="Path"></path>
                        </g>
                    </g>
                </g>
            </g>
        </g>
    </g>
</svg>