<?xml version="1.0" encoding="UTF-8"?>
<svg width="40px" height="40px" viewBox="0 0 40 40" version="1.1" xmlns="http://www.w3.org/2000/svg" xmlns:xlink="http://www.w3.org/1999/xlink">
    <title>Group 8</title>
    <defs>
        <filter id="filter-1">
            <feColorMatrix in="SourceGraphic" type="matrix" values="0 0 0 0 1.000000 0 0 0 0 1.000000 0 0 0 0 1.000000 0 0 0 1.000000 0"></feColorMatrix>
        </filter>
    </defs>
    <g id="Page-1" stroke="none" stroke-width="1" fill="none" fill-rule="evenodd">
        <g id="00---Tatsu---Interactions-&amp;-Changes" transform="translate(-151.000000, -781.000000)">
            <g id="Group-8" transform="translate(151.000000, 781.000000)">
                <rect id="Rectangle" x="0" y="0" width="40" height="40"></rect>
                <g filter="url(#filter-1)" id="noun_Gluten_3601445-Copy">
                    <g transform="translate(15.000000, 7.125000)">
                        <path d="M7.1393428,12.3626667 C7.19510376,12.3626667 7.25123581,12.3607141 7.30773896,12.3568089 C8.42815187,12.2731221 9.34250351,11.4269881 9.51281387,10.3162494 L9.99684998,7.05329067 C10.0113985,6.9552304 9.97494071,6.8565204 9.90014807,6.79146885 C9.82535544,6.72641729 9.72255703,6.70400799 9.62748202,6.73202963 L6.463822,7.66386093 C6.00281894,7.80053622 5.59380957,8.07322743 5.29032486,8.44624485 L5.29032486,7.45995022 C5.82233475,7.3965806 6.31737989,7.15544681 6.69528807,6.7756003 C7.48588976,5.97712795 7.62069181,4.7384886 7.02036672,3.78858911 L5.24463185,1.00907112 C5.19127052,0.925544935 5.09900759,0.875 4.99990319,0.875 C4.9007988,0.875 4.80853587,0.925544935 4.75517454,1.00907112 L2.97943966,3.78863753 C2.37910202,4.73852611 2.51388387,5.97716438 3.30446991,6.77564871 C3.68240659,7.15547468 4.17746499,7.39658956 4.70948153,7.45995022 L4.70948153,8.44624485 C4.4060537,8.07332939 3.99715409,7.80069449 3.5362748,7.66400617 L0.372517978,6.73217487 C0.277442968,6.70415322 0.174644562,6.72656253 0.0998519268,6.79161408 C0.0250592915,6.85666564 -0.0113984985,6.95537564 0.00315002214,7.05343591 L0.487186132,10.3163946 C0.657496487,11.4271333 1.57184813,12.2732674 2.69226104,12.3569541 C2.74876419,12.3608594 2.80489624,12.362812 2.8606572,12.362812 C3.57667255,12.361814 4.25477387,12.040817 4.70948153,11.4876225 L4.70948153,13.8162326 C4.4060537,13.4433171 3.99715409,13.1706822 3.5362748,13.0339939 L0.372517978,12.1022594 C0.277442968,12.0742378 0.174644562,12.0966471 0.0998519268,12.1616986 C0.0250592915,12.2267502 -0.0113984985,12.3254602 0.00315002214,12.4235204 L0.487186132,15.6864792 C0.657496487,16.7972179 1.57184813,17.6433519 2.69226104,17.7270387 C2.74924822,17.7310084 2.80600952,17.7329933 2.86254494,17.7329933 C3.43991503,17.7337086 3.9978564,17.5244687 4.43241926,17.1442568 C4.53240132,17.0569849 4.62506545,16.9616658 4.70948153,16.8592562 L4.70948153,19.3761399 C4.40606329,19.0032243 3.99715834,18.7306028 3.5362748,18.5939497 L0.372517978,17.6621184 C0.277442968,17.6340967 0.174644562,17.656506 0.0998519268,17.7215576 C0.0250592915,17.7866091 -0.0113984985,17.8853192 0.00315002214,17.9833794 L0.487186132,21.2463381 C0.657500131,22.3570667 1.57185596,23.2031846 2.69226104,23.2868492 C2.74876419,23.2907867 2.80489624,23.2927393 2.8606572,23.2927071 C3.57666609,23.2917278 4.25476879,22.9707479 4.70948153,22.4175661 L4.70948153,24.5845289 C4.70948153,24.7449517 4.83950774,24.875 4.99990319,24.875 C5.16029865,24.875 5.29032486,24.7449517 5.29032486,24.5845289 L5.29032486,22.4176145 C5.74511392,22.9707817 6.42329656,23.2916949 7.1393428,23.2925618 C7.19510376,23.2925618 7.25123581,23.2906092 7.30773896,23.286704 C8.42814404,23.2030393 9.34249987,22.3569215 9.51281387,21.2461929 L9.99684998,17.9832342 C10.0113985,17.8851739 9.97494071,17.7864639 9.90014807,17.7214124 C9.82535544,17.6563608 9.72255703,17.6339515 9.62748202,17.6619731 L6.463822,18.5938044 C6.00281468,18.7304445 5.59379997,19.0031224 5.29032486,19.3761399 L5.29032486,16.8592562 C5.3747799,16.9616027 5.46747629,17.0568569 5.56748394,17.1440632 C6.00204218,17.5242827 6.55998657,17.7335238 7.13735825,17.7327997 C7.19384527,17.7327997 7.25071951,17.7308148 7.30764216,17.726845 C8.42805506,17.6431583 9.34240671,16.7970242 9.51271706,15.6862855 L9.99675317,12.4233268 C10.0113017,12.3252665 9.9748439,12.2265565 9.90005127,12.161505 C9.82525863,12.0964534 9.72246022,12.0740441 9.62738521,12.1020657 L6.4637252,13.0338486 C6.00275122,13.1705546 5.59377701,13.4432618 5.29032486,13.816281 L5.29032486,11.487671 C5.74509594,12.0408673 6.42328549,12.3618015 7.1393428,12.3626667 Z" id="Path" fill="#000000" fill-rule="nonzero"></path>
                    </g>
                </g>
            </g>
        </g>
    </g>
</svg>