<?xml version="1.0" encoding="UTF-8"?>
<svg width="40px" height="40px" viewBox="0 0 40 40" version="1.1" xmlns="http://www.w3.org/2000/svg" xmlns:xlink="http://www.w3.org/1999/xlink">
    <title>Group 14</title>
    <defs>
        <filter id="filter-1">
            <feColorMatrix in="SourceGraphic" type="matrix" values="0 0 0 0 1.000000 0 0 0 0 1.000000 0 0 0 0 1.000000 0 0 0 1.000000 0"></feColorMatrix>
        </filter>
    </defs>
    <g id="Page-1" stroke="none" stroke-width="1" fill="none" fill-rule="evenodd">
        <g id="00---Tatsu---Interactions-&amp;-Changes" transform="translate(-151.000000, -1021.000000)">
            <g id="Group-20-Copy" transform="translate(151.000000, 781.000000)">
                <g id="Group-14" transform="translate(0.000000, 240.000000)">
                    <rect id="Rectangle-Copy-12" x="0" y="0" width="40" height="40"></rect>
                    <g filter="url(#filter-1)" id="noun_shell_2062089-copy">
                        <g transform="translate(12.000000, 12.000000)" id="Group" fill="#000000" fill-rule="nonzero">
                            <path d="M15.7806667,5.886 C15.7086667,5.598 15.508,5.37666667 15.2413333,5.25533333 L12.5673333,7.90333333 C12.5026667,7.968 12.418,8 12.3333333,8 C12.2473333,8 12.1613333,7.96733333 12.0966667,7.90133333 C11.9673333,7.77066667 11.9686667,7.55933333 12.0993333,7.42933333 L15.208,4.35066667 L15.2073333,4.34933333 C14.8866667,3.71333333 14.4733333,3.12066667 13.98,2.58666667 C13.848,2.444 13.6793333,2.35466667 13.498,2.31 L11.2893333,6.166 C11.228,6.27333333 11.1153333,6.33333333 11,6.33333333 C10.9433333,6.33333333 10.8866667,6.31933333 10.834,6.28933333 C10.6746667,6.19733333 10.6193333,5.994 10.7106667,5.834 L13.028,1.78933333 C12.966,1.696 12.892,1.60866667 12.7953333,1.53933333 C12.1153333,1.04866667 11.3646667,0.667333333 10.5646667,0.406 C10.4133333,0.356 10.2553333,0.348666667 10.1026667,0.373333333 L9.32866667,5.054 C9.302,5.21733333 9.16066667,5.33333333 9,5.33333333 C8.982,5.33333333 8.964,5.332 8.94533333,5.32866667 C8.764,5.29866667 8.64066667,5.12733333 8.67066667,4.94533333 L9.45466667,0.204 C9.336,0.132666667 9.20266667,0.0853333333 9.06,0.0666666667 C8.37066667,-0.0213333333 7.65933333,-0.0233333333 6.976,0.0626666667 C6.83466667,0.08 6.702,0.126666667 6.58333333,0.197333333 L7.32866667,4.948 C7.35666667,5.13 7.23266667,5.30066667 7.05066667,5.32933333 C7.034,5.332 7.01666667,5.33333333 7,5.33333333 C6.83866667,5.33333333 6.69666667,5.216 6.67066667,5.052 L5.93533333,0.365333333 C5.78133333,0.34 5.62266667,0.346666667 5.47133333,0.396666667 C4.65933333,0.658666667 3.898,1.044 3.20866667,1.54266667 C3.122,1.60533333 3.054,1.68266667 2.99533333,1.76533333 L5.29,5.83666667 C5.38066667,5.99733333 5.32333333,6.2 5.16333333,6.29066667 C5.112,6.31933333 5.05533333,6.33333333 5,6.33333333 C4.88333333,6.33333333 4.77066667,6.27266667 4.70933333,6.164 L2.53466667,2.30533333 C2.342,2.34666667 2.164,2.44 2.02533333,2.59 C1.54933333,3.10466667 1.15133333,3.676 0.834,4.28733333 L3.90533333,7.434 C4.034,7.56533333 4.03133333,7.77666667 3.89933333,7.90533333 C3.83466667,7.96866667 3.75066667,8 3.66666667,8 C3.58,8 3.49333333,7.96666667 3.428,7.89933333 L0.803333333,5.21 C0.805333333,5.214 0.806,5.218 0.808,5.222 C0.518666667,5.33733333 0.302,5.57 0.224666667,5.87333333 C0.0753333333,6.45866667 0,7.062 0,7.66533333 C0,8.24 0.194,8.936 0.309333333,9.29933333 C0.326666667,9.354 0.358,9.40333333 0.399333333,9.442 L0.554666667,9.58533333 C0.595333333,9.62333333 0.644666667,9.65 0.698,9.664 C3.58333333,10.4046667 5.98933333,12.37 7.29933333,15.056 C7.334,15.1273333 7.39333333,15.184 7.466,15.216 C7.64866667,15.2946667 7.82266667,15.3333333 8,15.3333333 C8.17733333,15.3333333 8.35133333,15.2946667 8.53333333,15.216 C8.606,15.184 8.66533333,15.1273333 8.7,15.056 C10.01,12.37 12.4166667,10.404 15.3026667,9.664 C15.358,9.65 15.4086667,9.622 15.45,9.58266667 L15.5993333,9.44066667 C15.6413333,9.40066667 15.672,9.35133333 15.6893333,9.296 C15.8046667,8.91466667 16,8.19666667 16,7.66533333 C16,7.064 15.926,6.46533333 15.7806667,5.886 Z" id="Path"></path>
                            <path d="M2.66666667,11.1546667 L2.66666667,11.5053333 C2.66666667,12.12 2.916,12.7206667 3.35,13.1553333 L4.178,13.9833333 C4.61933333,14.424 5.20533333,14.6666667 5.82866667,14.6666667 L6.32133333,14.6666667 C5.43666667,13.174 4.17266667,11.966 2.66666667,11.1546667 Z" id="Path"></path>
                            <path d="M9.67866667,14.6666667 L10.1713333,14.6666667 C10.7853333,14.6666667 11.3873333,14.4173333 11.8213333,13.9833333 L12.6493333,13.1553333 C13.084,12.7206667 13.3333333,12.1193333 13.3333333,11.5053333 L13.3333333,11.1546667 C11.8266667,11.9666667 10.564,13.174 9.67866667,14.6666667 Z" id="Path"></path>
                        </g>
                    </g>
                </g>
            </g>
        </g>
    </g>
</svg>