<?xml version="1.0" encoding="UTF-8"?>
<svg width="40px" height="40px" viewBox="0 0 40 40" version="1.1" xmlns="http://www.w3.org/2000/svg" xmlns:xlink="http://www.w3.org/1999/xlink">
    <title>Group 17</title>
    <defs>
        <filter id="filter-1">
            <feColorMatrix in="SourceGraphic" type="matrix" values="0 0 0 0 1.000000 0 0 0 0 1.000000 0 0 0 0 1.000000 0 0 0 1.000000 0"></feColorMatrix>
        </filter>
    </defs>
    <g id="Page-1" stroke="none" stroke-width="1" fill="none" fill-rule="evenodd">
        <g id="00---Tatsu---Interactions-&amp;-Changes" transform="translate(-151.000000, -1141.000000)">
            <g id="Group-20-Copy" transform="translate(151.000000, 781.000000)">
                <g id="Group-17" transform="translate(0.000000, 360.000000)">
                    <rect id="Rectangle-Copy-15" x="0" y="0" width="40" height="40"></rect>
                    <g filter="url(#filter-1)" id="noun_leaf_3483303-copy">
                        <g transform="translate(12.000000, 13.000000)" id="Group" fill="#000000" fill-rule="nonzero">
                            <path d="M15.3301333,0.189866667 C14.9354667,0.736 14.5706667,1.33333333 14.112,1.84746667 C13.6256,2.3936 13.0666667,2.88 12.5056,3.35146667 C11.6842667,4.0384 10.7968,4.64853333 9.99893333,5.36106667 C7.93813333,7.20426667 7.28533333,10.2656 8.42666667,12.6549333 C10.7733333,10.4789333 12.8810667,8.15146667 13.9605333,5.0624 C13.4933333,8.3648 11.6373333,10.8288 9.18613333,12.9365333 C9.23733333,13.0538667 11.3984,12.5781333 12.3178667,12.0362667 C16.1429333,9.7856 16.6442667,4.04266667 15.3301333,0.189866667 Z" id="Path"></path>
                            <path d="M0.0768,7.75253333 C0.695466667,8.57173333 1.35253333,9.39733333 1.96053333,10.2613333 C2.4,10.8864 2.7264,11.5925333 3.1872,12.1984 C4.15573333,13.4784 5.5424,13.7941333 6.79893333,13.0645333 C6.09066667,11.2810667 4.96,9.8688 3.24266667,8.94293333 C5.19466667,9.41013333 6.35946667,10.7861333 7.28746667,12.544 C7.65226667,8.12373333 3.7568,6.91626667 0.0768,7.75253333 Z" id="Path"></path>
                        </g>
                    </g>
                </g>
            </g>
        </g>
    </g>
</svg>