<?xml version="1.0" encoding="UTF-8"?>
<svg width="40px" height="40px" viewBox="0 0 40 40" version="1.1" xmlns="http://www.w3.org/2000/svg" xmlns:xlink="http://www.w3.org/1999/xlink">
    <title>Group 12</title>
    <defs>
        <filter id="filter-1">
            <feColorMatrix in="SourceGraphic" type="matrix" values="0 0 0 0 1.000000 0 0 0 0 1.000000 0 0 0 0 1.000000 0 0 0 1.000000 0"></feColorMatrix>
        </filter>
    </defs>
    <g id="Page-1" stroke="none" stroke-width="1" fill="none" fill-rule="evenodd">
        <g id="00---Tatsu---Interactions-&amp;-Changes" transform="translate(-151.000000, -941.000000)">
            <g id="Group-20-Copy" transform="translate(151.000000, 781.000000)">
                <g id="Group-12" transform="translate(0.000000, 160.000000)">
                    <rect id="Rectangle-Copy-10" x="0" y="0" width="40" height="40"></rect>
                    <g filter="url(#filter-1)" id="noun_Almonds_2052239-Copy">
                        <g transform="translate(12.000000, 12.000000)" id="Group" fill="#000000" fill-rule="nonzero">
                            <path d="M0.988606061,15.0113939 L0.988606061,15.0113939 C2.12460606,16.1473939 4.18230303,15.9316364 5.37842424,14.7355152 C7.56412121,12.5498182 8.86690909,9.7910303 9.2169697,6.7830303 C6.2089697,7.13260606 3.45018182,8.43587879 1.26448485,10.6215758 C0.0683636364,11.8172121 -0.147393939,13.8753939 0.988606061,15.0113939 Z" id="Path"></path>
                            <path d="M13.7110303,3.70375758 C12.2264242,3.32169697 10.6676364,4.60993939 10.2938182,6.29139394 C9.61066667,9.36436364 9.92678788,12.4644848 11.1384242,15.2722424 C13.3997576,13.3590303 14.9861818,10.7481212 15.6693333,7.67515152 C16.0436364,5.99418182 15.1956364,4.08630303 13.7110303,3.70375758 Z" id="Path"></path>
                            <path d="M10.0804848,1.39490909 C9.28775758,0.147393939 7.35272727,-0.0974545455 5.99369697,0.708363636 C3.50933333,2.18181818 1.70812121,4.34957576 0.727272727,6.94060606 C3.56315152,7.26836364 6.38012121,6.69866667 8.864,5.22569697 C10.2235152,4.41987879 10.8732121,2.64242424 10.0804848,1.39490909 Z" id="Path"></path>
                        </g>
                    </g>
                </g>
            </g>
        </g>
    </g>
</svg>