<?xml version="1.0" encoding="UTF-8"?>
<svg width="40px" height="40px" viewBox="0 0 40 40" version="1.1" xmlns="http://www.w3.org/2000/svg" xmlns:xlink="http://www.w3.org/1999/xlink">
    <title>Group 15</title>
    <defs>
        <filter id="filter-1">
            <feColorMatrix in="SourceGraphic" type="matrix" values="0 0 0 0 1.000000 0 0 0 0 1.000000 0 0 0 0 1.000000 0 0 0 1.000000 0"></feColorMatrix>
        </filter>
    </defs>
    <g id="Page-1" stroke="none" stroke-width="1" fill="none" fill-rule="evenodd">
        <g id="00---Tatsu---Interactions-&amp;-Changes" transform="translate(-151.000000, -1061.000000)">
            <g id="Group-20-Copy" transform="translate(151.000000, 781.000000)">
                <g id="Group-15" transform="translate(0.000000, 280.000000)">
                    <rect id="Rectangle-Copy-13" x="0" y="0" width="40" height="40"></rect>
                    <g filter="url(#filter-1)" id="noun_Fish_464853-Copy">
                        <g transform="translate(12.000000, 16.000000)">
                            <path d="M15.6363636,7.46464646 L13.9393939,6.23232323 C11.8383838,4.70707071 10.3434343,8.16161616 6.22222222,8.16161616 C2.43434343,8.16161616 0.161616162,4.95959596 0.161616162,4.12121212 C0.161616162,3.28282828 2.43434343,0.0808080808 6.22222222,0.0808080808 C10.3434343,0.0808080808 11.8383838,3.53535354 13.9393939,2.01010101 L15.6363636,0.777777778 C15.969697,1.61616162 15.6969697,2.86868687 14.6666667,4.12121212 C15.6969697,5.37373737 15.969697,6.63636364 15.6363636,7.46464646 Z M3.22222222,4.29292929 C2.7979798,4.29292929 2.45454545,4.63636364 2.45454545,5.06060606 C2.45454545,5.47474747 2.7979798,5.81818182 3.22222222,5.81818182 C3.64646465,5.81818182 3.98989899,5.47474747 3.98989899,5.06060606 C3.98989899,4.63636364 3.64646465,4.29292929 3.22222222,4.29292929 Z" id="Shape" fill="#000000" fill-rule="nonzero" transform="translate(7.966240, 4.121212) scale(-1, 1) rotate(-180.000000) translate(-7.966240, -4.121212) "></path>
                        </g>
                    </g>
                </g>
            </g>
        </g>
    </g>
</svg>