<?xml version="1.0" encoding="UTF-8"?>
<svg width="22px" height="22px" viewBox="0 0 22 22" version="1.1" xmlns="http://www.w3.org/2000/svg" xmlns:xlink="http://www.w3.org/1999/xlink">
    <title>Combined Shape</title>
    <g id="Page-1" stroke="none" stroke-width="1" fill="none" fill-rule="evenodd">
        <g id="05---Tatsu---Menu-Orders-M" transform="translate(-324.000000, -232.000000)" fill="#000000" fill-rule="nonzero">
            <path d="M335,253 C340.522847,253 345,248.522847 345,243 C345,237.477153 340.522847,233 335,233 C329.477153,233 325,237.477153 325,243 C325,248.522847 329.477153,253 335,253 Z M335,254 C328.924868,254 324,249.075132 324,243 C324,236.924868 328.924868,232 335,232 C341.075132,232 346,236.924868 346,243 C346,249.075132 341.075132,254 335,254 Z M336,241 L336,249 L337,249 L337,249.5 L333,249.5 L333,249 L334,249 L334,241.5 L333,241.5 L333,241 L336,241 Z M334.75,237 C335.4405,237 336,237.5595 336,238.25 C336,238.9405 335.4405,239.5 334.75,239.5 C334.0595,239.5 333.5,238.9405 333.5,238.25 C333.5,237.5595 334.0595,237 334.75,237 Z" id="Combined-Shape"></path>
        </g>
    </g>
</svg>