<svg width="36" height="36" viewBox="0 0 36 36" xmlns="http://www.w3.org/2000/svg">
    <path fill="#FFFFFF" d="M12.0809242,13.3872828 C11.6987278,13.3872828 11.3872828,13.6987278 11.3872828,14.0809242 L11.3872828,22.4046211 C11.3872828,22.7868175 11.6987278,23.0982625 12.0809242,23.0982625 L24.5664696,23.0982625 C24.948666,23.0982625 25.260111,22.7868175 25.260111,22.4046211 L25.260111,14.0809242 C25.260111,13.6987278 24.948666,13.3872828 24.5664696,13.3872828 L12.0809242,13.3872828 Z M24.5664696,24.4855454 L12.0809242,24.4855454 C10.9336413,24.4855454 10,23.551904 10,22.4046211 L10,14.0809242 C10,12.9336413 10.9336413,12 12.0809242,12 L24.5664696,12 C25.7137525,12 26.6473938,12.9336413 26.6473938,14.0809242 L26.6473938,22.4046211 C26.6473938,23.551904 25.7137525,24.4855454 24.5664696,24.4855454 L24.5664696,24.4855454 Z"/>
    <path fill="#FFFFFF" d="M18.3236969,19.6300555 C18.1690149,19.6300555 18.0150265,19.578726 17.8880901,19.4760671 L10.7657801,13.7195371 C10.4675143,13.4788435 10.4210403,13.0418494 10.6624275,12.7442772 C10.9031211,12.4467051 11.3401152,12.4002311 11.6376874,12.640231 L18.3236969,18.0443912 L25.0097064,12.640231 C25.3079722,12.3995375 25.7442727,12.4460114 25.9849663,12.7442772 C26.2263535,13.0418494 26.1798795,13.4788435 25.8816137,13.7195371 L18.7593037,19.4760671 C18.6323673,19.578726 18.4783789,19.6300555 18.3236969,19.6300555"/>
</svg>