<svg width="55" height="28" viewBox="0 0 55 28" xmlns="http://www.w3.org/2000/svg">
    <g fill="#000" fill-rule="evenodd" transform="translate(0, 0.544649)">
        <path d="M52.3020499,1.63172342 L52.3020499,12.8209502 L48.6979501,12.8209502 L48.6979501,1.63172342 L46,0.455350554 L46,14.1276726 C46,14.5008701 46.1313624,14.8046241 46.3995259,15.0542939 L46.4095663,15.0642203 C46.667271,15.327452 46.9776879,15.4553506 47.359643,15.4553506 L53.6616929,15.4553506 C54.0310975,15.4553506 54.3436062,15.3259814 54.6159531,15.059686 C54.8744945,14.8073202 55,14.5024632 55,14.1276726 L55,0.455350554 L52.3020499,1.63172342"/>
        <path d="M5.37560301,8.78035096 L5.37560301,4.45985664 L3.38656887,3.10840114 L8.31003966,3.10840114 L8.31003966,0.455350554 L0,0.455350554 L0,3.10840114 L2.93455252,3.10840114 L2.93455252,8.78035096 C2.93455252,12.345164 5.551782,15.2747094 8.8929252,15.4497557 L9,15.4553506 L9,12.8534768 L8.90578808,12.8457016 C6.92621762,12.6825034 5.37560301,10.8967852 5.37560301,8.78035096"/>
        <path d="M28.375603,8.78035096 L28.375603,4.45998006 L26.3864916,3.10840114 L31.3100397,3.10840114 L31.3100397,0.455350554 L23,0.455350554 L23,3.10840114 L25.9344366,3.10840114 L25.9344366,8.78035096 C25.9344366,12.345164 28.5517048,15.2747094 31.8928866,15.4497557 L32,15.4553506 L32,12.8534768 L31.9057495,12.8457016 C29.9262176,12.6825034 28.375603,10.8967852 28.375603,8.78035096"/>
        <path d="M13.6979292,6.63301041 L17.3019453,6.63301041 L17.3019453,3.10003085 L13.6979292,3.10003085 L13.6979292,6.63301041 Z M18.6616822,0.455350554 L12.3596951,0.455350554 C11.9756571,0.455350554 11.6634485,0.578378013 11.405206,0.831486507 C11.1325307,1.09882518 11,1.40487649 11,1.76719236 L11,15.4553506 L13.6979292,15.4553506 L13.6979292,9.27773171 L17.3019453,9.27760868 L17.3019453,15.4553506 L20,15.4553506 L20,10.6647843 L17.8264206,9.27756767 L20,9.27748565 L20,1.76719236 C20,1.40561465 19.8751249,1.10030151 19.6137867,0.829354031 C19.3418226,0.577721867 19.0304506,0.455350554 18.6616822,0.455350554 L18.6616822,0.455350554 Z"/>
        <path d="M42.6617303,0.455350554 L36.3597306,0.455350554 C35.9756944,0.455350554 35.6634454,0.578460032 35.405246,0.831609535 C35.1325301,1.09870215 35,1.40479447 35,1.76719236 L35,7.9448112 C35,8.32152128 35.1325301,8.6343391 35.4051205,8.9013497 C35.6168005,9.10873299 35.8648762,9.22815164 36.1605589,9.26448575 L36.1595131,9.274533 L36.2820867,9.27547621 L36.3238788,9.27641942 C36.3357179,9.27707556 36.3475151,9.27773171 36.3597306,9.27773171 L41.3019578,9.31222041 L41.3019578,12.8106293 L37.6979167,12.8106293 L37.6979167,11.2609344 L35,11.2609344 L35,14.1224711 C35,14.4970487 35.1313588,14.8019517 35.3997239,15.0527227 L35.4088855,15.0617447 C35.666583,15.3266228 35.9776188,15.4553506 36.3597306,15.4553506 L42.6617303,15.4553506 C43.0311245,15.4553506 43.3436245,15.3254746 43.6159639,15.0581359 C43.874498,14.8050274 44,14.4989351 44,14.1224711 L44,10.7435629 L41.7618809,9.31546013 L44,9.33104361 L44,7.9448112 C44,7.58339753 43.8749163,7.27804338 43.6138722,7.00713691 C43.3419511,6.75538172 43.0307062,6.63301041 42.6617303,6.63301041 L37.6979167,6.63301041 L37.6979167,3.10003085 L41.3019578,3.10003085 L41.3019578,4.64964372 L44,4.64964372 L44,1.76719236 C44,1.40561465 43.8749163,1.10030151 43.6138722,0.829477059 C43.3419511,0.577721867 43.0302878,0.455350554 42.6617303,0.455350554"/>
        <path d="M13.644918,21.7792698 C13.6389347,21.8285002 13.5845492,21.8715873 13.5060658,21.883916 C13.3309428,23.3370966 12.8418447,24.7225749 11.5978279,25.4553506 C11.5133199,25.3814629 11.3563117,25.2398308 11.2415987,25.1721284 C12.473484,24.4824399 12.9142624,23.1954645 13.0592216,21.7115254 L13.644918,21.7792698 Z M16,20.6585417 C15.987951,20.6831569 15.9517215,20.7016288 15.9214753,20.7139575 C15.5954098,21.5021068 15.0760654,22.1856521 14.4903278,22.684394 C14.3997541,22.6043209 14.2306969,22.4935315 14.1220084,22.4319724 C14.677541,22.0194048 15.1244264,21.4220758 15.3236474,20.904862 L11,20.904862 L11,20.486109 L15.5531558,20.486109 L15.6195491,20.4553506 L16,20.6585417 L16,20.6585417 Z"/>
        <path d="M22.2588884,20.4553506 C22.4926017,20.6864199 22.8175953,21.1022365 23,21.4058786 L22.7776626,21.5972562 C22.6066728,21.3068747 22.2873672,20.8844278 22.053576,20.6467732 L22.2588884,20.4553506 Z M21.4663903,20.8579967 C21.7001426,21.0890209 22.0251362,21.4982974 22.2018918,21.81511 L21.9794766,22.0065327 C21.8199017,21.7226913 21.4891812,21.2804436 21.2554679,21.0428341 L21.4663903,20.8579967 Z M18.7981861,21.0758505 C19.3113113,21.2342568 19.9383907,21.4982974 20.3261467,21.7226913 L20.1379762,22.1253374 C19.7331952,21.8877279 19.1402825,21.6236873 18.6271963,21.4586507 L18.7981861,21.0758505 Z M18.5131252,25.94053 C20.3432496,25.2276565 21.637458,24.0659501 22.3900235,22.0989514 C22.4754989,22.1847398 22.6465666,22.3299305 22.7378079,22.3959632 C21.9738275,24.343116 20.6226225,25.5840707 18.9008423,26.290359 C18.9179452,26.3497614 18.8837394,26.4289645 18.8380798,26.4553506 L18.5131252,25.94053 Z M18.1710677,22.712821 C18.6841929,22.8447961 19.3227262,23.0956212 19.7047163,23.3068446 L19.5336486,23.7227063 C19.1573854,23.5114829 18.5017492,23.2473972 18,23.1154671 L18.1710677,22.712821 L18.1710677,22.712821 Z"/>
        <path d="M27.644918,21.7792698 C27.6388935,21.8285002 27.5845492,21.8715873 27.5060658,21.883916 C27.3309428,23.3370966 26.8418447,24.7225749 25.5978279,25.4553506 C25.5133199,25.3814629 25.356353,25.2398308 25.2415987,25.1721284 C26.473484,24.4824399 26.9142211,23.1954645 27.0592216,21.7115254 L27.644918,21.7792698 Z M30,20.6585417 C29.9878685,20.6831569 29.9517215,20.7016288 29.9214753,20.7139575 C29.5954098,21.5021068 29.0760654,22.1856521 28.4903691,22.684394 C28.3997541,22.6043209 28.2307381,22.4935315 28.1220084,22.4319724 C28.677541,22.0194048 29.1243852,21.4220758 29.3236886,20.904862 L25,20.904862 L25,20.486109 L29.5531558,20.486109 L29.6195078,20.4553506 L30,20.6585417 L30,20.6585417 Z"/>
        <path d="M33.8997596,20.9074546 C34.2089313,21.1786994 34.5607562,21.5727237 34.72066,21.8504561 L34.4541779,22.1087257 C34.299592,21.8245939 33.9531216,21.4176826 33.6439135,21.1399943 L33.8997596,20.9074546 Z M33.7611641,22.6254412 C34.097035,22.8902425 34.4861587,23.2906662 34.6727253,23.5748421 C34.4594595,23.7815195 34.4381511,23.8138694 34.4114883,23.8461311 C34.2302761,23.5619551 33.8464705,23.1486003 33.5107088,22.8708679 L33.7611641,22.6254412 Z M36,24.5565488 L35.2697603,24.7115899 L35.2697603,26.4553506 L34.917899,26.4553506 L34.917899,24.7890884 L33.3667225,25.1249006 L33.302761,24.7180334 L34.917899,24.3757336 L34.917899,20.4682817 L35.3763386,20.5070751 C35.3710206,20.5522237 35.3443214,20.5845294 35.2697603,20.5974606 L35.2697603,24.298191 L35.9413565,24.1561692 L36,24.5565488 Z M33.4200481,21.043077 C33.4040577,21.0818263 33.3667225,21.1076885 33.3134698,21.1076885 C33.1908647,21.5016687 32.9829897,22.0894393 32.8177315,22.4510696 C32.7591244,22.4252515 32.620456,22.347753 32.5671669,22.3283783 C32.7217528,21.9472851 32.9189918,21.3143659 33.0148976,20.8751489 L33.4200481,21.043077 Z M31.3998324,20.9074546 C31.5757267,21.3466276 31.7303125,21.9214229 31.7782837,22.2960726 L31.47443,22.3994333 C31.4264588,22.0247837 31.2825453,21.4435007 31.1172871,21.0043719 L31.3998324,20.9074546 Z M32.4019815,23.1357133 L32.4019815,23.4521509 C32.5885481,23.632966 33.153566,24.2852599 33.2814526,24.4467886 L33.0629052,24.8019754 C32.9509725,24.6017857 32.6364828,24.1819874 32.4019815,23.8913238 L32.4019815,26.4489071 L32.0554382,26.4489071 L32.0554382,23.8008942 C31.8155824,24.4790503 31.4957383,25.1701375 31.1919575,25.5770047 C31.1545859,25.4543134 31.063998,25.2670106 31,25.163694 C31.3571429,24.7115899 31.7622933,23.8784368 31.9808407,23.1357133 L31.0693159,23.1357133 L31.0693159,22.7223144 L32.0554382,22.7223144 L32.0554382,20.4553506 L32.5032054,20.4940998 C32.4978874,20.5393367 32.471261,20.5651548 32.4019815,20.5780418 L32.4019815,22.7223144 L33.3454141,22.7223144 L33.3454141,23.1357133 L32.4019815,23.1357133 L32.4019815,23.1357133 Z"/>
        <path d="M40.5199471,23.2085941 L41.4239423,23.2085941 L41.4239423,22.2360332 L40.5199471,22.2360332 L40.5199471,23.2085941 Z M40.5199471,21.8355641 L41.4239423,21.8355641 L41.4239423,20.8773214 L40.5199471,20.8773214 L40.5199471,21.8355641 Z M39.3043751,23.2085941 L40.1869533,23.2085941 L40.1869533,22.2360332 L39.3043751,22.2360332 L39.3043751,23.2085941 Z M39.3043751,21.8355641 L40.1869533,21.8355641 L40.1869533,20.8773214 L39.3043751,20.8773214 L39.3043751,21.8355641 Z M40.5199471,26.0119758 L42,26.0119758 L42,26.4553506 L38.6014764,26.4553506 L38.6014764,26.0119758 L40.1869533,26.0119758 L40.1869533,24.9035144 L38.9502893,24.9035144 L38.9502893,24.4672254 L40.1869533,24.4672254 L40.1869533,23.630565 L38.9819996,23.630565 L38.9819996,20.4553506 L41.7569362,20.4553506 L41.7569362,23.630565 L40.5199471,23.630565 L40.5199471,24.4672254 L41.8309749,24.4672254 L41.8309749,24.9035144 L40.5199471,24.9035144 L40.5199471,26.0119758 Z M38.1204773,23.0155187 L38.1204773,24.7891155 L38.8393034,24.5030452 C38.8445764,24.5459509 38.8498494,24.5888077 38.8815597,24.9178325 C38.2684826,25.1824012 37.6184223,25.4684226 37.2114258,25.6329595 C37.2061167,25.6901833 37.1744064,25.7259054 37.1427323,25.7402236 L37,25.2109886 C37.2166988,25.1394955 37.4809991,25.039366 37.7769375,24.9249183 L37.7769375,23.0155187 L37.1215319,23.0155187 L37.1215319,22.5650092 L37.7769375,22.5650092 L37.7769375,20.9559492 L37.0686935,20.9559492 L37.0686935,20.4982562 L38.8128661,20.4982562 L38.8128661,20.9559492 L38.1204773,20.9559492 L38.1204773,22.5650092 L38.7600277,22.5650092 L38.7600277,23.0155187 L38.1204773,23.0155187 L38.1204773,23.0155187 Z"/>
    </g>
</svg>