<?xml version="1.0" encoding="UTF-8"?>
<svg width="40px" height="40px" viewBox="0 0 40 40" version="1.1" xmlns="http://www.w3.org/2000/svg" xmlns:xlink="http://www.w3.org/1999/xlink">
    <title>Group 19</title>
    <defs>
        <filter id="filter-1">
            <feColorMatrix in="SourceGraphic" type="matrix" values="0 0 0 0 1.000000 0 0 0 0 1.000000 0 0 0 0 1.000000 0 0 0 1.000000 0"></feColorMatrix>
        </filter>
    </defs>
    <g id="Page-1" stroke="none" stroke-width="1" fill="none" fill-rule="evenodd">
        <g id="00---Tatsu---Interactions-&amp;-Changes" transform="translate(-151.000000, -1221.000000)">
            <g id="Group-20-Copy" transform="translate(151.000000, 781.000000)">
                <g id="Group-19" transform="translate(0.000000, 440.000000)">
                    <rect id="Rectangle-Copy-17" x="0" y="0" width="40" height="40"></rect>
                    <g filter="url(#filter-1)" id="noun_seed_2679928-copy">
                        <g transform="translate(12.000000, 13.000000)">
                            <path d="M14.5559466,2.47012013 C12.0955577,0.100825727 10.6032536,2.37790653 9.21262587,4.39916899 C9.06227105,4.61773362 8.92014359,4.82107096 8.7830211,5.01215566 C8.87647008,5.30501526 8.96532545,5.59950383 9.05143838,5.89470065 C9.13378043,6.17693656 9.21550544,6.47078771 9.29119706,6.77221709 C10.2102606,5.77344898 11.0768062,4.85124223 11.0971689,4.87086064 C11.5001033,5.25890846 10.6051048,6.77157967 9.53664632,7.93104873 C9.73396559,9.11466898 9.75281993,10.3397924 9.31107982,11.4043566 C8.85336494,12.5075201 7.99929749,13.2271686 7.00008588,13.7072883 C9.18862943,14.64366 11.0654936,13.2120829 12.9391353,11.135719 C15.1599712,8.67470674 17.637569,5.43752803 14.5559466,2.47012013 L14.5559466,2.47012013 Z M2.11770239,0.24417466 C-1.10275648,1.24712142 0.0503065617,3.72555649 1.04067377,5.9845062 C1.85353591,7.83833937 2.17268851,8.82655462 2.37268167,10.8708351 C2.60798386,13.2729921 2.97224977,14.480551 5.78182109,13.6055134 C9.6920061,12.3876849 9.55056425,9.47431615 8.55135264,6.05044388 C7.61117227,2.82920071 6.15122909,-1.01204077 2.11770239,0.24417466 Z M2.38413139,4.53996824 C3.36222614,4.23535175 5.32869981,9.8627181 4.00738747,10.2742498 C3.95048163,10.291915 2.32660851,4.55788685 2.38413139,4.53996824 Z" id="Shape" fill="#000000" fill-rule="nonzero"></path>
                        </g>
                    </g>
                </g>
            </g>
        </g>
    </g>
</svg>