<?xml version="1.0" encoding="UTF-8"?>
<svg width="40px" height="40px" viewBox="0 0 40 40" version="1.1" xmlns="http://www.w3.org/2000/svg" xmlns:xlink="http://www.w3.org/1999/xlink">
    <title>Group 10</title>
    <defs>
        <filter id="filter-1">
            <feColorMatrix in="SourceGraphic" type="matrix" values="0 0 0 0 1.000000 0 0 0 0 1.000000 0 0 0 0 1.000000 0 0 0 1.000000 0"></feColorMatrix>
        </filter>
    </defs>
    <g id="Page-1" stroke="none" stroke-width="1" fill="none" fill-rule="evenodd">
        <g id="00---Tatsu---Interactions-&amp;-Changes" transform="translate(-151.000000, -861.000000)">
            <g id="Group-20-Copy" transform="translate(151.000000, 781.000000)">
                <g id="Group-10" transform="translate(0.000000, 80.000000)">
                    <rect id="Rectangle-Copy-8" x="0" y="0" width="40" height="40"></rect>
                    <g filter="url(#filter-1)" id="noun_Milk_2712347-Copy">
                        <g transform="translate(15.000000, 10.739130)">
                            <path d="M9.54094469,5.63034471 L7.09446712,3.29658672 L7.09878069,3.29658672 L7.09878069,1.82615782 L7.1732466,1.82615782 C7.62322049,1.82615782 7.98805804,1.4757234 7.98805804,1.04351369 C7.98805804,0.611303979 7.62322049,0.260869565 7.1732466,0.260869565 L2.82743427,0.260869565 C2.37746039,0.260869565 2.01262284,0.611303979 2.01262284,1.04351369 C2.01262284,1.4757234 2.37746039,1.82615782 2.82743427,1.82615782 L2.90144612,1.82615782 L2.90144612,3.29658672 L0.434081767,5.65040692 C0.429087102,5.65476827 0.424546498,5.65934768 0.419551833,5.6639271 L0.412967957,5.67025106 L0.414103108,5.67025106 C0.158694119,5.92190091 0,6.26470296 0,6.64392228 L0,17.8643655 C0,18.6356701 0.65112265,19.2608696 1.45367445,19.2608696 L8.5460983,19.2608696 C9.34910416,19.2608696 10,18.6356701 10,17.8643655 L10,6.64435842 C10.0002268,6.24355042 9.82223513,5.88482944 9.54094469,5.63034471 Z" id="Path" fill="#000000" fill-rule="nonzero"></path>
                        </g>
                    </g>
                </g>
            </g>
        </g>
    </g>
</svg>