<?xml version="1.0" encoding="UTF-8"?>
<svg width="40px" height="40px" viewBox="0 0 40 40" version="1.1" xmlns="http://www.w3.org/2000/svg" xmlns:xlink="http://www.w3.org/1999/xlink">
    <title>Group 13</title>
    <defs>
        <filter id="filter-1">
            <feColorMatrix in="SourceGraphic" type="matrix" values="0 0 0 0 1.000000 0 0 0 0 1.000000 0 0 0 0 1.000000 0 0 0 1.000000 0"></feColorMatrix>
        </filter>
    </defs>
    <g id="Page-1" stroke="none" stroke-width="1" fill="none" fill-rule="evenodd">
        <g id="00---Tatsu---Interactions-&amp;-Changes" transform="translate(-151.000000, -981.000000)">
            <g id="Group-20-Copy" transform="translate(151.000000, 781.000000)">
                <g id="Group-13" transform="translate(0.000000, 200.000000)">
                    <rect id="Rectangle-Copy-11" x="0" y="0" width="40" height="40"></rect>
                    <g filter="url(#filter-1)" id="noun_fragrance_1482737-copy">
                        <g transform="translate(12.000000, 13.000000)">
                            <path d="M0.598646154,12.5700923 C0.832246154,13.1997538 1.15446154,13.7942154 1.56529231,14.3249231 C1.56603077,14.3259077 1.56676923,14.3268923 1.56750769,14.3278769 C1.57243077,14.3340308 1.57636923,14.3409231 1.58129231,14.3470769 C1.58523077,14.352 1.59015385,14.3552 1.59409231,14.3598769 C1.60516923,14.3729231 1.61723077,14.3852308 1.63003077,14.3963077 C1.63766154,14.4027077 1.64529231,14.4096 1.65341538,14.4155077 C1.66695385,14.4253538 1.68123077,14.4339692 1.69624615,14.4420923 C1.70436923,14.4465231 1.712,14.4514462 1.72036923,14.4551385 C1.73784615,14.4630154 1.75630769,14.4691692 1.77501538,14.4740923 C1.78141538,14.4758154 1.78756923,14.4787692 1.79421538,14.48 C1.81956923,14.4851692 1.84566154,14.4886154 1.87249231,14.4886154 L11.1827692,14.4886154 C11.1948308,14.4886154 11.2059077,14.4861538 11.2177231,14.4849231 C11.2231385,14.4844308 11.2285538,14.4841846 11.2339692,14.4832 C11.2526769,14.4807385 11.2706462,14.4765538 11.2886154,14.4711385 C11.2935385,14.4696615 11.2982154,14.4681846 11.3031385,14.4664615 C11.3206154,14.4605538 11.3373538,14.4531692 11.3533538,14.4448 C11.3587692,14.4418462 11.3639385,14.4393846 11.3691077,14.4361846 C11.3843692,14.4273231 11.3984,14.4172308 11.4121846,14.4064 C11.4176,14.4019692 11.4230154,14.3977846 11.4281846,14.3931077 C11.4412308,14.3812923 11.4532923,14.3684923 11.4643692,14.3552 C11.4673231,14.3515077 11.4707692,14.3490462 11.4737231,14.3453538 C11.4766769,14.3414154 11.4788923,14.3374769 11.4818462,14.3337846 C11.4852923,14.3291077 11.4884923,14.3249231 11.4916923,14.32 C11.9010462,13.7905231 12.2220308,13.1972923 12.4551385,12.5696 L0.598646154,12.5696 L0.598646154,12.5700923 Z" id="Path" fill="#000000" fill-rule="nonzero"></path>
                            <path d="M14.6902154,5.40233846 C14.448,3.23372308 11.7294769,1.55889231 8.24098462,1.44812308 L8.24098462,0.690461538 C8.24098462,0.4864 8.07581538,0.321230769 7.87175385,0.321230769 L5.18203077,0.321230769 C4.97796923,0.321230769 4.8128,0.4864 4.8128,0.690461538 L4.8128,1.44196923 L3.00430769,1.44196923 C2.80024615,1.44196923 2.63507692,1.60713846 2.63507692,1.8112 C2.63507692,2.01526154 2.80024615,2.18043077 3.00430769,2.18043077 L4.8128,2.18043077 L4.8128,3.87470769 C2.1376,4.65156923 0.169353846,7.19729231 0.169353846,10.2114462 C0.169353846,10.7603692 0.237538462,11.3046154 0.367261538,11.8316308 L12.6862769,11.8316308 C12.816,11.3046154 12.8844308,10.7603692 12.8844308,10.2114462 C12.8844308,7.19704615 10.9161846,4.65156923 8.24098462,3.87470769 L8.24098462,2.18756923 C11.2603077,2.29267692 13.6930462,3.67704615 13.9475692,5.41661538 C13.3090462,5.63593846 12.8504615,6.37809231 12.8504615,7.28738462 C12.8504615,8.3744 13.5049846,9.22609231 14.3406769,9.22609231 C15.1763692,9.22609231 15.8306462,8.3744 15.8306462,7.28738462 C15.8306462,6.35766154 15.3513846,5.60221538 14.6902154,5.40233846 Z" id="Path" fill="#000000" fill-rule="nonzero"></path>
                            <path d="M1.86461538,2.36455385 L0.995446154,2.90609231 C0.8224,3.01390769 0.769476923,3.2416 0.877292308,3.41464615 C0.9472,3.52713846 1.06756923,3.58867692 1.19089231,3.58867692 C1.2576,3.58867692 1.32504615,3.57070769 1.38584615,3.5328 L2.25501538,2.99126154 C2.42806154,2.88344615 2.48098462,2.65575385 2.37316923,2.48270769 C2.2656,2.30966154 2.03790769,2.25649231 1.86461538,2.36455385 Z" id="Path" fill="#000000" fill-rule="nonzero"></path>
                            <path d="M0.995446154,0.7168 L1.86461538,1.25809231 C1.92541538,1.29575385 1.99286154,1.31396923 2.05956923,1.31396923 C2.18289231,1.31396923 2.30326154,1.25243077 2.37341538,1.13993846 C2.48123077,0.966892308 2.42830769,0.7392 2.25526154,0.631384615 L1.38584615,0.0898461538 C1.2128,-0.0179692308 0.985353846,0.0349538462 0.877292308,0.208 C0.769230769,0.381046154 0.8224,0.608984615 0.995446154,0.7168 Z" id="Path" fill="#000000" fill-rule="nonzero"></path>
                            <path d="M0.538584615,2.18043077 L1.38707692,2.18043077 C1.59113846,2.18043077 1.75630769,2.01526154 1.75630769,1.8112 C1.75630769,1.60713846 1.59113846,1.44196923 1.38707692,1.44196923 L0.538584615,1.44196923 C0.334523077,1.44196923 0.169353846,1.60713846 0.169353846,1.8112 C0.169353846,2.01526154 0.334769231,2.18043077 0.538584615,2.18043077 Z" id="Path" fill="#000000" fill-rule="nonzero"></path>
                        </g>
                    </g>
                </g>
            </g>
        </g>
    </g>
</svg>