<?xml version="1.0" encoding="UTF-8"?>
<svg width="40px" height="40px" viewBox="0 0 40 40" version="1.1" xmlns="http://www.w3.org/2000/svg" xmlns:xlink="http://www.w3.org/1999/xlink">
    <title>Group 9</title>
    <defs>
        <filter id="filter-1">
            <feColorMatrix in="SourceGraphic" type="matrix" values="0 0 0 0 1.000000 0 0 0 0 1.000000 0 0 0 0 1.000000 0 0 0 1.000000 0"></feColorMatrix>
        </filter>
    </defs>
    <g id="Page-1" stroke="none" stroke-width="1" fill="none" fill-rule="evenodd">
        <g id="00---Tatsu---Interactions-&amp;-Changes" transform="translate(-151.000000, -821.000000)">
            <g id="Group-20-Copy" transform="translate(151.000000, 781.000000)">
                <g id="Group-9" transform="translate(0.000000, 40.000000)">
                    <rect id="Rectangle-Copy-4" x="0" y="0" width="40" height="40"></rect>
                    <g filter="url(#filter-1)" id="noun_sesame_1048451-copy">
                        <g transform="translate(12.000000, 13.000000)">
                            <path d="M9.75076923,7.56769231 C10.3983289,6.83797548 10.7600716,5.89864668 10.7692308,4.92307692 C10.7692308,2.80923077 8.86923077,0 8,0 C7.13076923,0 5.23076923,2.80923077 5.23076923,4.92307692 C5.23076923,7.03692308 7.05230769,8.61538462 8,8.61538462 C8.50923077,8.61538462 9.19692308,8.20461538 9.75076923,7.56769231 Z" id="Path" fill="#000000" fill-rule="nonzero"></path>
                            <path d="M5.77846154,9.70769231 C4.28307692,8.21230769 0.953846154,7.57076923 0.34,8.18461538 C-0.273846154,8.79846154 0.367692308,12.1292308 1.86307692,13.6230769 C2.55930688,14.3045255 3.47825633,14.7115512 4.45076923,14.7692308 C4.54923077,14.7692308 4.64769231,14.78 4.74307692,14.78 C5.46923077,14.78 6.11230769,14.5907692 6.43538462,14.2723077 C6.79538462,13.9123077 6.99076923,13.1353846 6.93230769,12.2923077 C6.87181689,11.31985 6.46205345,10.4019799 5.77846154,9.70769231 Z" id="Path" fill="#000000" fill-rule="nonzero"></path>
                            <path d="M10.2215385,9.70769231 C9.54031559,10.4045462 9.13382141,11.3240754 9.07692308,12.2969231 C9.01846154,13.1384615 9.21384615,13.9153846 9.57384615,14.2769231 C9.89230769,14.5953846 10.5353846,14.7846154 11.2661538,14.7846154 C11.3630769,14.7846154 11.46,14.7846154 11.5584615,14.7738462 C12.5321285,14.7152808 13.4517639,14.306554 14.1476923,13.6230769 C15.6430769,12.1276923 16.2846154,8.79846154 15.6707692,8.18461538 C15.0569231,7.57076923 11.7169231,8.21230769 10.2215385,9.70769231 Z" id="Path" fill="#000000" fill-rule="nonzero"></path>
                        </g>
                    </g>
                </g>
            </g>
        </g>
    </g>
</svg>