<?xml version="1.0" encoding="UTF-8"?>
<svg width="56px" height="56px" viewBox="0 0 56 56" version="1.1" xmlns="http://www.w3.org/2000/svg" xmlns:xlink="http://www.w3.org/1999/xlink">
    <title>Group 7</title>
    <g id="Page-1" stroke="none" stroke-width="1" fill="none" fill-rule="evenodd">
        <g id="05---Tatsu---Menu-Orders-M" transform="translate(-299.000000, -661.000000)">
            <g id="Group-7" transform="translate(299.000000, 661.000000)">
                <rect id="Rectangle" x="0" y="0" width="56" height="56"></rect>
                <g id="Group-9" transform="translate(17.000000, 26.000000)" fill="#D8D8D8">
                    <path d="M5,2.5 C5,3.881 3.881,5 2.5,5 C1.119,5 0,3.881 0,2.5 C0,1.119 1.119,0 2.5,0 C3.881,0 5,1.119 5,2.5 Z" id="Stroke-6322"></path>
                    <path d="M14,2.5 C14,3.881 12.881,5 11.5,5 C10.119,5 9,3.881 9,2.5 C9,1.119 10.119,0 11.5,0 C12.881,0 14,1.119 14,2.5 Z" id="Stroke-6323"></path>
                    <path d="M23,2.5 C23,3.881 21.881,5 20.5,5 C19.119,5 18,3.881 18,2.5 C18,1.119 19.119,0 20.5,0 C21.881,0 23,1.119 23,2.5 Z" id="Stroke-6324"></path>
                </g>
            </g>
        </g>
    </g>
</svg>