<svg width="36" height="36" viewBox="0 0 36 36" xmlns="http://www.w3.org/2000/svg">
    <path transform="translate(0.3375, 0)" fill="#FFFFFF" d="M25.9405147,12.6694407 C25.3379872,12.936618 24.689844,13.1173262 24.0101207,13.1980308 C24.7041302,12.7822266 25.2367304,12.1243086 25.4881178,11.3390679 C24.8387214,11.7242945 24.1191471,12.003753 23.3539572,12.1543849 C22.740903,11.5014796 21.8674386,11.0934452 20.9002365,11.0934452 C19.0445319,11.0934452 17.5394663,12.5985109 17.5394663,14.4542155 C17.5394663,14.7176333 17.5692919,14.9740333 17.626938,15.2201573 C14.833857,15.0800521 12.3573284,13.7421602 10.6996258,11.7082539 C10.4103925,12.204512 10.2444719,12.7822266 10.2444719,13.3980378 C10.2444719,14.5637431 10.8382272,15.5928521 11.7395121,16.1953797 C11.1888661,16.1780858 10.6703015,16.0269527 10.2174033,15.7745628 C10.2171526,15.788849 10.2171526,15.8031353 10.2171526,15.8171708 C10.2171526,17.4455491 11.3760908,18.8037424 12.9132378,19.1122746 C12.6315236,19.1894703 12.3340193,19.2303239 12.0279935,19.2303239 C11.8109432,19.2303239 11.6006601,19.2095212 11.3956404,19.170422 C11.8232244,20.5053062 13.0641203,21.4770197 14.5350995,21.504339 C13.384683,22.4058746 11.9357597,22.9429863 10.3607667,22.9429863 C10.0900805,22.9429863 9.82190059,22.9271963 9.55948531,22.8958668 C11.046004,23.8497852 12.8129836,24.4059452 14.710795,24.4059452 C20.8924668,24.4059452 24.2730373,19.2849624 24.2730373,14.8434523 C24.2730373,14.6978331 24.269779,14.5527152 24.2632625,14.4088504 C24.9204286,13.9351495 25.4901228,13.3433993 25.9405147,12.6694407 L25.9405147,12.6694407 Z"/>
</svg>