<svg width="36" height="36" viewBox="0 0 36 36" xmlns="http://www.w3.org/2000/svg">
    <path transform="translate(0.8375, 0)" fill="#FFFFFF" d="M18.800083,11.0947937 C19.6929731,11.0983111 19.9533604,11.108636 20.4943071,11.1333178 C21.20282,11.1656334 21.6867089,11.27817 22.1101149,11.442734 C22.5478424,11.6128204 22.9190626,11.8404302 23.2891465,12.2104878 C23.6592041,12.5805717 23.8868139,12.9517919 24.0569268,13.3895194 C24.2214643,13.8129255 24.3340009,14.2968143 24.3663165,15.0053272 C24.392541,15.5800831 24.4025577,15.8381137 24.4054222,16.8746173 L24.4061509,17.2745497 C24.4063047,17.4198241 24.4063742,17.5776565 24.4063742,17.7498304 L24.4063202,17.9975544 C24.4062836,18.0766924 24.4062278,18.1524681 24.4061509,18.2251042 L24.4054222,18.625031 C24.4025577,19.6615207 24.392541,19.9195512 24.3663165,20.4943071 C24.3340009,21.20282 24.2214643,21.6867089 24.0569268,22.1101149 C23.8868139,22.5478424 23.6592041,22.9190626 23.2891465,23.2891465 C22.9190626,23.6592041 22.5478424,23.8868139 22.1101149,24.0569268 C21.6867089,24.2214643 21.20282,24.3340009 20.4943071,24.3663165 C19.9195512,24.392541 19.6615207,24.4025577 18.625031,24.4054222 L18.2251042,24.4061509 C18.0798319,24.4063047 17.9220017,24.4063742 17.7498304,24.4063742 L17.5021027,24.4063202 C17.4229636,24.4062836 17.3471869,24.4062278 17.2745497,24.4061509 L16.8746173,24.4054222 C15.8381137,24.4025577 15.5800831,24.392541 15.0053272,24.3663165 C14.2968143,24.3340009 13.8129255,24.2214643 13.3895194,24.0569268 C12.9517919,23.8868139 12.5805717,23.6592041 12.2104878,23.2891465 C11.8404302,22.9190626 11.6128204,22.5478424 11.442734,22.1101149 C11.27817,21.6867089 11.1656334,21.20282 11.1333178,20.4943071 C11.108636,19.9533604 11.0983111,19.6929731 11.0947937,18.800083 L11.0947937,16.699563 C11.0983111,15.8066612 11.108636,15.5462739 11.1333178,15.0053272 C11.1656334,14.2968143 11.27817,13.8129255 11.442734,13.3895194 C11.6128204,12.9517919 11.8404302,12.5805717 12.2104878,12.2104878 C12.5805717,11.8404302 12.9517919,11.6128204 13.3895194,11.442734 C13.8129255,11.27817 14.2968143,11.1656334 15.0053272,11.1333178 C15.5462739,11.108636 15.8066612,11.0983111 16.699563,11.0947937 Z M18.4216287,12.2931072 L17.0780222,12.2931072 C16.2941821,12.294431 15.9259552,12.2988325 15.5893018,12.3097531 L15.4218283,12.3157725 C15.3095627,12.3201689 15.1936935,12.3253534 15.0599969,12.3314534 C14.4109892,12.3610474 14.0585295,12.4694884 13.8239704,12.5606486 C13.5132594,12.6814028 13.2915156,12.8256473 13.0585947,13.0585947 C12.8256473,13.2915156 12.6814028,13.5132594 12.5606486,13.8239704 C12.4694884,14.0585295 12.3610474,14.4109892 12.3314534,15.0599969 C12.3253534,15.1936935 12.3201689,15.3095627 12.3157725,15.4218283 L12.3097531,15.5893018 C12.2988325,15.9259552 12.294431,16.2941821 12.2931072,17.0780222 L12.2931072,18.4216287 C12.2950928,19.5973722 12.3040034,19.8380028 12.3314534,20.4396374 C12.3610474,21.0886451 12.4694884,21.4411048 12.5606486,21.675664 C12.6814028,21.9863749 12.8256738,22.2081188 13.0585947,22.4410397 C13.2915156,22.673987 13.5132594,22.8182315 13.8239704,22.9389857 C14.0585295,23.0301459 14.4109892,23.1385869 15.0599969,23.1681809 C15.1936784,23.1742809 15.3095335,23.1794654 15.4217869,23.1838618 L15.589244,23.1898813 C15.9258681,23.2008018 16.2940892,23.2052034 17.0779765,23.2065271 L18.4216759,23.2065271 C19.5974952,23.2045415 19.8380934,23.1956309 20.4396374,23.1681809 C21.0886451,23.1385869 21.4411048,23.0301459 21.675664,22.9389857 C21.9863749,22.8182315 22.2081188,22.673987 22.4410397,22.4410397 C22.673987,22.2081188 22.8182315,21.9863749 22.9389857,21.675664 C23.0301459,21.4411048 23.1385869,21.0886451 23.1681809,20.4396374 C23.1956309,19.8380028 23.2045415,19.5973722 23.2065271,18.4216287 L23.2065271,17.0780222 C23.2052034,16.2941821 23.2008018,15.9259552 23.1898813,15.5893018 L23.1838618,15.4218283 C23.1794654,15.3095627 23.1742809,15.1936935 23.1681809,15.0599969 C23.1385869,14.4109892 23.0301459,14.0585295 22.9389857,13.8239704 C22.8182315,13.5132594 22.673987,13.2915156 22.4410397,13.0585947 C22.2081188,12.8256473 21.9863749,12.6814028 21.675664,12.5606486 C21.4411048,12.4694884 21.0886451,12.3610474 20.4396374,12.3314534 C19.8380028,12.3040034 19.5973722,12.2950928 18.4216287,12.2931072 Z M17.7498304,14.3315873 C19.6376655,14.3315873 21.168047,15.8619688 21.168047,17.7498304 C21.168047,19.6376655 19.6376655,21.168047 17.7498304,21.168047 C15.8619688,21.168047 14.3315873,19.6376655 14.3315873,17.7498304 C14.3315873,15.8619688 15.8619688,14.3315873 17.7498304,14.3315873 Z M17.7498304,15.5309648 C16.5243731,15.5309648 15.5309648,16.5243731 15.5309648,17.7498304 C15.5309648,18.9752612 16.5243731,19.9686695 17.7498304,19.9686695 C18.9752612,19.9686695 19.9686695,18.9752612 19.9686695,17.7498304 C19.9686695,16.5243731 18.9752612,15.5309648 17.7498304,15.5309648 Z M21.3030962,13.397737 C21.7442587,13.397737 22.1018973,13.7553756 22.1018973,14.1965381 C22.1018973,14.6377006 21.7442587,14.9953128 21.3030962,14.9953128 C20.8619601,14.9953128 20.5043215,14.6377006 20.5043215,14.1965381 C20.5043215,13.7553756 20.8619601,13.397737 21.3030962,13.397737 Z"/>
</svg>