<?xml version="1.0" encoding="UTF-8"?>
<svg width="310px" height="146px" viewBox="0 0 310 146" version="1.1" xmlns="http://www.w3.org/2000/svg" xmlns:xlink="http://www.w3.org/1999/xlink">
    <title>Tatsu deep blue v1 Copy 2</title>
    <defs>
        <filter id="filter-1">
            <feColorMatrix in="SourceGraphic" type="matrix" values="0 0 0 0 0.000000 0 0 0 0 0.000000 0 0 0 0 0.000000 0 0 0 1.000000 0"></feColorMatrix>
        </filter>
    </defs>
    <g id="Release-01" stroke="none" stroke-width="1" fill="none" fill-rule="evenodd">
        <g id="01---Tatsu---Homepage" transform="translate(-948.000000, -171.000000)">
            <g id="Tatsu-deep-blue-v1-Copy-2" transform="translate(-676.000000, -306.632227)" filter="url(#filter-1)">
                <g transform="translate(1624.000000, 477.632227)">
                    <path d="M294.312824,6.66611293 L294.312824,70.071731 L274.02051,70.071731 L274.02051,6.66611293 L258.830128,0 L258.830128,77.4764913 C258.830128,79.5912774 259.569744,81.3125502 261.079595,82.7273458 L261.136127,82.783595 C262.587092,84.2752414 264.334845,85 266.485383,85 L301.968079,85 C304.047953,85 305.807484,84.2669081 307.34089,82.7579009 C308.796566,81.3278278 309.503205,79.600305 309.503205,77.4764913 L309.503205,0 L294.312824,6.66611293" id="Fill-1" fill="#0F1214"></path>
                    <path d="M30.7632777,47.1750023 L30.7632777,22.6922012 L19.5643354,15.0339533 L47.2851592,15.0339533 L47.2851592,0 L0.496794872,0 L0.496794872,15.0339533 L17.0193289,15.0339533 L17.0193289,47.1750023 C17.0193289,67.3756095 31.7552256,83.976367 50.5670041,84.9682956 L51.1698718,85 L51.1698718,70.2560488 L50.6394265,70.211989 C39.493768,69.2871992 30.7632777,59.1681294 30.7632777,47.1750023" id="Fill-2" fill="#0F1214"></path>
                    <path d="M159.929944,47.1750023 L159.929944,22.6929005 L148.730567,15.0339533 L176.451826,15.0339533 L176.451826,0 L129.663462,0 L129.663462,15.0339533 L146.185343,15.0339533 L146.185343,47.1750023 C146.185343,67.3756095 160.921457,83.976367 179.733453,84.9682956 L180.336538,85 L180.336538,70.2560488 L179.805876,70.211989 C168.660435,69.2871992 159.929944,59.1681294 159.929944,47.1750023" id="Fill-3" fill="#0F1214"></path>
                    <path d="M77.2896228,35.0067392 L97.5814655,35.0067392 L97.5814655,14.9865217 L77.2896228,14.9865217 L77.2896228,35.0067392 Z M105.237249,0 L69.7549071,0 C67.5926423,0 65.834801,0.697155605 64.3808075,2.13143707 C62.8455523,3.6463562 62.099359,5.38064696 62.099359,7.43377022 L62.099359,85 L77.2896228,85 L77.2896228,49.9934932 L97.5814655,49.9927961 L97.5814655,85 L112.772436,85 L112.772436,57.8534579 L100.534441,49.9925637 L112.772436,49.9920989 L112.772436,7.43377022 C112.772436,5.38482989 112.069347,3.65472207 110.597923,2.11935304 C109.066672,0.693437442 107.313542,0 105.237249,0 L105.237249,0 Z" id="Fill-4" fill="#0F1214"></path>
                    <path d="M240.365725,0 L204.883312,0 C202.721057,0 200.962989,0.697620376 199.509238,2.13213423 C197.973754,3.64565904 197.227564,5.38018219 197.227564,7.43377022 L197.227564,42.440277 C197.227564,44.5749675 197.973754,46.3476018 199.508531,47.8606618 C200.700362,49.0358338 202.097113,49.7125395 203.761907,49.9184328 L203.756019,49.9753672 L204.44615,49.980712 L204.681455,49.9860569 C204.748112,49.9897751 204.814535,49.9934932 204.883312,49.9934932 L232.709741,50.1889292 L232.709741,70.013246 L212.417757,70.013246 L212.417757,61.2316416 L197.227564,61.2316416 L197.227564,77.4470162 C197.227564,79.5696226 197.967159,81.2974066 199.478146,82.7184421 L199.529729,82.7695668 C200.980654,84.2705429 202.731892,85 204.883312,85 L240.365725,85 C242.445541,85 244.205023,84.2640361 245.738386,82.7491169 C247.194022,81.3148355 247.900641,79.5803123 247.900641,77.4470162 L247.900641,58.2998699 L235.299265,50.2072876 L247.900641,50.295594 L247.900641,42.440277 C247.900641,40.3922662 247.196377,38.661926 245.726609,37.1267894 C244.195601,35.7001766 242.443185,35.0067392 240.365725,35.0067392 L212.417757,35.0067392 L212.417757,14.9865217 L232.709741,14.9865217 L232.709741,23.7676613 L247.900641,23.7676613 L247.900641,7.43377022 C247.900641,5.38482989 247.196377,3.65472207 245.726609,2.1200502 C244.195601,0.693437442 242.44083,0 240.365725,0" id="Fill-5" fill="#0F1214"></path>
                    <path d="M77.2839509,119.149164 C77.2518486,119.415008 76.9600494,119.647679 76.5389554,119.714253 C75.5993533,127.561429 72.9751537,135.043011 66.3005252,139 C65.8471075,138.601006 65.004698,137.836193 64.3892188,137.470601 C70.998757,133.746282 73.3637026,126.796615 74.1414646,118.783344 L77.2839509,119.149164 Z M89.9198718,113.097232 C89.8552243,113.230154 89.6608392,113.329903 89.4985564,113.396477 C87.7490899,117.652484 84.9626075,121.343628 81.8198998,124.036834 C81.3339369,123.60444 80.42688,123.006177 79.8437245,122.673758 C82.8243707,120.445893 85.2220829,117.220317 86.2909798,114.427362 L63.0929487,114.427362 L63.0929487,112.166096 L87.522381,112.166096 L87.8786062,112 L89.9198718,113.097232 L89.9198718,113.097232 Z" id="Fill-6" fill="#0F1214"></path>
                    <path d="M125.687113,112 C126.941075,113.309393 128.68479,115.665687 129.663462,117.386326 L128.470536,118.470799 C127.55311,116.825304 125.839913,114.431438 124.585533,113.084728 L125.687113,112 Z M121.435056,114.281661 C122.689227,115.590799 124.432942,117.910032 125.381304,119.705304 L124.187961,120.790032 C123.33178,119.181597 121.557337,116.675527 120.303376,115.329073 L121.435056,114.281661 Z M107.119114,115.516166 C109.872228,116.413802 113.23675,117.910032 115.31721,119.181597 L114.307603,121.463259 C112.135797,120.116805 108.954593,118.620575 106.201688,117.685367 L107.119114,115.516166 Z M105.589652,143.082684 C115.408974,139.043067 122.3529,132.460064 126.390703,121.313738 C126.849311,121.799872 127.767155,122.62262 128.2567,122.996805 C124.157652,134.030671 116.907917,141.062748 107.669904,145.065048 C107.761667,145.401661 107.57814,145.850479 107.333159,146 L105.589652,143.082684 Z M103.754382,124.792332 C106.507496,125.540192 109.933473,126.961534 111.982997,128.158466 L111.065153,130.515016 C109.046356,129.318083 105.528616,127.821597 102.836538,127.073994 L103.754382,124.792332 L103.754382,124.792332 Z" id="Fill-7" fill="#0F1214"></path>
                    <path d="M154.783951,119.149164 C154.751627,119.415008 154.460049,119.647679 154.038955,119.714253 C153.099353,127.561429 150.475154,135.043011 143.800525,139 C143.347107,138.601006 142.504919,137.836193 141.889219,137.470601 C148.498757,133.746282 150.863481,126.796615 151.641465,118.783344 L154.783951,119.149164 Z M167.419872,113.097232 C167.354782,113.230154 167.160839,113.329903 166.998556,113.396477 C165.24909,117.652484 162.462607,121.343628 159.320121,124.036834 C158.833937,123.60444 157.927101,123.006177 157.343724,122.673758 C160.324371,120.445893 162.721861,117.220317 163.791201,114.427362 L140.592949,114.427362 L140.592949,112.166096 L165.022381,112.166096 L165.378385,112 L167.419872,113.097232 L167.419872,113.097232 Z" id="Fill-8" fill="#0F1214"></path>
                    <path d="M190.926915,114.561923 C192.58574,116.098977 194.473416,118.331781 195.331362,119.905598 L193.901583,121.369126 C193.07217,119.759046 191.213223,117.453215 189.554202,115.879648 L190.926915,114.561923 Z M190.183297,124.297181 C191.985374,125.797721 194.073172,128.066789 195.074173,129.677119 C193.92992,130.848291 193.815593,131.031607 193.672537,131.214423 C192.700263,129.604093 190.640999,127.261749 188.839508,125.687932 L190.183297,124.297181 Z M202.195513,135.240123 L198.277496,136.11869 L198.277496,146 L196.389625,146 L196.389625,136.557848 L188.066966,138.460784 L187.723788,136.155203 L196.389625,134.215504 L196.389625,112.073276 L198.84933,112.293106 C198.820797,112.548948 198.677545,112.732014 198.277496,112.80529 L198.277496,133.776096 L201.880868,132.971306 L202.195513,135.240123 Z M188.353078,115.33045 C188.267284,115.550029 188.066966,115.696582 187.781245,115.696582 C187.123422,117.929136 186.008092,121.259836 185.121418,123.309075 C184.806968,123.162772 184.06296,122.723614 183.777043,122.613824 C184.606455,120.454296 185.664719,116.867754 186.179291,114.378857 L188.353078,115.33045 Z M177.513845,114.561923 C178.457585,117.05057 179.286997,120.307743 179.544381,122.430758 L177.914089,123.016469 C177.656705,120.893454 176.884554,117.599517 175.99788,115.111121 L177.513845,114.561923 Z M182.89076,127.188722 L182.89076,128.981868 C183.891761,130.006488 186.923299,133.702819 187.60946,134.618149 L186.43687,136.630874 C185.836308,135.496466 184.14895,133.117609 182.89076,131.470515 L182.89076,145.963487 L181.031422,145.963487 L181.031422,130.95808 C179.744503,134.800965 178.028417,138.717126 176.398515,141.022707 C176.198002,140.327456 175.711963,139.266074 175.36859,138.680613 C177.284799,136.11869 179.458586,131.397489 180.631177,127.188722 L175.740496,127.188722 L175.740496,124.846128 L181.031422,124.846128 L181.031422,112 L183.433865,112.219579 C183.405332,112.475921 183.262471,112.622224 182.89076,112.69525 L182.89076,124.846128 L187.952639,124.846128 L187.952639,127.188722 L182.89076,127.188722 L182.89076,127.188722 Z" id="Fill-9" fill="#0F1214"></path>
                    <path d="M228.036511,127.601714 L232.886793,127.601714 L232.886793,122.090535 L228.036511,122.090535 L228.036511,127.601714 Z M228.036511,119.82121 L232.886793,119.82121 L232.886793,114.391168 L228.036511,114.391168 L228.036511,119.82121 Z M221.5145,127.601714 L226.249871,127.601714 L226.249871,122.090535 L221.5145,122.090535 L221.5145,127.601714 Z M221.5145,119.82121 L226.249871,119.82121 L226.249871,114.391168 L221.5145,114.391168 L221.5145,119.82121 Z M228.036511,143.487543 L235.977564,143.487543 L235.977564,146 L217.743178,146 L217.743178,143.487543 L226.249871,143.487543 L226.249871,137.206262 L219.614693,137.206262 L219.614693,134.733957 L226.249871,134.733957 L226.249871,129.992882 L219.784831,129.992882 L219.784831,112 L234.673433,112 L234.673433,129.992882 L228.036511,129.992882 L228.036511,134.733957 L235.07068,134.733957 L235.07068,137.206262 L228.036511,137.206262 L228.036511,143.487543 Z M215.162433,126.507619 L215.162433,136.558002 L219.019211,134.936936 C219.047503,135.180069 219.075795,135.422924 219.245932,137.287398 C215.956538,138.78662 212.468714,140.407408 210.285022,141.339784 C210.256536,141.664052 210.086399,141.866478 209.916455,141.947614 L209.150641,138.948616 C210.313313,138.543488 211.731386,137.976088 213.319209,137.327551 L213.319209,126.507619 L209.802706,126.507619 L209.802706,123.954732 L213.319209,123.954732 L213.319209,114.836726 L209.519208,114.836726 L209.519208,112.243132 L218.877365,112.243132 L218.877365,114.836726 L215.162433,114.836726 L215.162433,123.954732 L218.593867,123.954732 L218.593867,126.507619 L215.162433,126.507619 L215.162433,126.507619 Z" id="Fill-10" fill="#0F1214"></path>
                </g>
            </g>
        </g>
    </g>
</svg>