<svg width="174" height="34" viewBox="0 0 174 34" xmlns="http://www.w3.org/2000/svg">
    <g fill="#fff">
        <path d="M14.8115406,7.41394777 C14.7780345,7.68963805 14.4734757,7.93092595 14.0339682,7.99996634 C13.0532796,16.1377778 10.31433,23.8964563 3.34783613,28 C2.87459149,27.586229 1.99534546,26.7930892 1.35295283,26.4139562 C8.25151025,22.5517003 10.7198693,15.3446381 11.531641,7.0345791 L14.8115406,7.41394777 Z M28,1.13787039 C27.9325257,1.27571552 27.7296405,1.37915829 27.5602614,1.44819867 C25.7342951,5.86183507 22.8259664,9.68968854 19.5458357,12.4826431 C19.0386228,12.0342341 18.0919024,11.4138131 17.483247,11.0690825 C20.5942297,8.75870368 23.096788,5.41366165 24.2124253,2.5172643 L0,2.5172643 L0,0.172247515 L25.4976727,0.172247515 L25.8694748,0 L28,1.13787039 L28,1.13787039 Z"/>
        <path d="M62.8497752,0 C64.1585697,1.30939297 65.9785337,3.6656869 67,5.38632588 L65.7549107,6.47079872 C64.7973679,4.82530351 63.0092566,2.4314377 61.7000257,1.08472843 L62.8497752,0 Z M58.4117858,2.28166134 C59.7207985,3.59079872 61.5407625,5.91003195 62.5305943,7.70530351 L61.2850687,8.79003195 C60.3914493,7.18159744 58.5394145,4.67552716 57.23062,3.32907348 L58.4117858,2.28166134 Z M43.4698421,3.51616613 C46.3433431,4.41380192 49.8549879,5.91003195 52.0264218,7.18159744 L50.9726666,9.46325879 C48.7058929,8.11680511 45.3855822,6.62057508 42.5122993,5.68536741 L43.4698421,3.51616613 Z M41.8735011,31.0826837 C52.1221979,27.0430671 59.3697649,20.4600639 63.5841313,9.31373802 C64.0627937,9.7998722 65.0207728,10.6226198 65.5317241,10.9968051 C61.2534342,22.0306709 53.6866862,29.0627476 44.0447168,33.0650479 C44.1404929,33.4016613 43.9489407,33.8504792 43.6932469,34 L41.8735011,31.0826837 Z M39.9579791,12.7923323 C42.8314802,13.5401917 46.4072666,14.9615335 48.5464115,16.1584665 L47.5884324,18.515016 C45.4813583,17.3180831 41.8097958,15.8215974 39,15.0739936 L39.9579791,12.7923323 L39.9579791,12.7923323 Z"/>
        <path d="M93.8115406,7.41394777 C93.7778035,7.68963805 93.4734757,7.93092595 93.0339682,7.99996634 C92.0532796,16.1377778 89.31433,23.8964563 82.3478361,28 C81.8745915,27.586229 80.9955765,26.7930892 80.3529528,26.4139562 C87.2515102,22.5517003 89.7196382,15.3446381 90.531641,7.0345791 L93.8115406,7.41394777 Z M107,1.13787039 C106.932064,1.27571552 106.729641,1.37915829 106.560261,1.44819867 C104.734295,5.86183507 101.825966,9.68968854 98.5460667,12.4826431 C98.0386228,12.0342341 97.0921335,11.4138131 96.483247,11.0690825 C99.5942297,8.75870368 102.096557,5.41366165 103.212656,2.5172643 L79,2.5172643 L79,0.172247515 L104.497673,0.172247515 L104.869244,0 L107,1.13787039 L107,1.13787039 Z"/>
        <path d="M128.238654,2.56192305 C129.970015,4.09897684 131.940235,6.3317813 132.835696,7.90559834 L131.343396,9.36912564 C130.477715,7.75904554 128.537481,5.45321476 126.805915,3.87964781 L128.238654,2.56192305 Z M127.462519,12.2971806 C129.343396,13.7977212 131.522489,16.0667888 132.567262,17.677119 C131.372973,18.8482909 131.253646,19.031607 131.104335,19.2144228 C130.089546,17.6040927 127.940235,15.2617487 126.059969,13.6879317 L127.462519,12.2971806 Z M140,23.2401233 L135.910658,24.1186898 L135.910658,34 L133.940235,34 L133.940235,24.557848 L125.253646,26.4607837 L124.895461,24.155203 L133.940235,22.2155041 L133.940235,0.0732764011 L136.507496,0.293105604 C136.477715,0.548947783 136.3282,0.73201374 135.910658,0.805290141 L135.910658,21.7760958 L139.671596,20.9713058 L140,23.2401233 Z M125.552269,3.33044994 C125.462723,3.55002905 125.253646,3.69658186 124.955431,3.69658186 C124.268842,5.92913623 123.104742,9.25983626 122.179296,11.3090746 C121.851096,11.1627719 121.074554,10.7236137 120.776135,10.6138241 C121.641815,8.45429603 122.746354,4.86775382 123.283427,2.37885709 L125.552269,3.33044994 Z M114.239062,2.56192305 C115.224069,5.05056969 116.08975,8.30774323 116.358389,10.4307581 L114.656808,11.0164692 C114.388169,8.89345426 113.582254,5.59951747 112.656808,3.11112092 L114.239062,2.56192305 Z M119.851096,15.1887224 L119.851096,16.9818685 C120.895869,18.0064876 124.059969,21.7028194 124.776135,22.6181492 L123.552269,24.6308744 C122.925446,23.4964656 121.164304,21.1176086 119.851096,19.4705151 L119.851096,33.9634868 L117.910454,33.9634868 L117.910454,18.9580805 C116.567262,22.8009651 114.776135,26.717126 113.074962,29.0227067 C112.865681,28.3274562 112.358389,27.2660738 112,26.6806129 C114,24.1186898 116.268842,19.3974888 117.492708,15.1887224 L112.388169,15.1887224 L112.388169,12.8461284 L117.910454,12.8461284 L117.910454,0 L120.41795,0.219579113 C120.388169,0.475921472 120.239062,0.622224184 119.851096,0.695250495 L119.851096,12.8461284 L125.134319,12.8461284 L125.134319,15.1887224 L119.851096,15.1887224 L119.851096,15.1887224 Z"/>
        <path d="M165.711704,15.6017136 L170.774077,15.6017136 L170.774077,10.0905352 L165.711704,10.0905352 L165.711704,15.6017136 Z M165.711704,7.82121012 L170.774077,7.82121012 L170.774077,2.39116801 L165.711704,2.39116801 L165.711704,7.82121012 Z M158.904501,15.6017136 L163.846938,15.6017136 L163.846938,10.0905352 L158.904501,10.0905352 L158.904501,15.6017136 Z M158.904501,7.82121012 L163.846938,7.82121012 L163.846938,2.39116801 L158.904501,2.39116801 L158.904501,7.82121012 Z M165.711704,31.4875429 L174,31.4875429 L174,34 L154.968268,34 L154.968268,31.4875429 L163.846938,31.4875429 L163.846938,25.2062616 L156.92162,25.2062616 L156.92162,22.7339572 L163.846938,22.7339572 L163.846938,17.9928816 L157.099197,17.9928816 L157.099197,0 L172.638843,0 L172.638843,17.9928816 L165.711704,17.9928816 L165.711704,22.7339572 L173.05346,22.7339572 L173.05346,25.2062616 L165.711704,25.2062616 L165.711704,31.4875429 Z M152.274673,14.5076193 L152.274673,24.5580016 L156.300099,22.9369365 C156.329628,23.1800686 156.359157,23.4229237 156.536734,25.2873979 C153.103503,26.7866201 149.463165,28.4074083 147.183985,29.3397838 C147.154253,29.6640523 146.976676,29.8664777 146.799301,29.947614 L146,26.9486158 C147.213513,26.543488 148.693595,25.9760875 150.35085,25.3275507 L150.35085,14.5076193 L146.680579,14.5076193 L146.680579,11.9547324 L150.35085,11.9547324 L150.35085,2.83672555 L146.384684,2.83672555 L146.384684,0.243132081 L156.15205,0.243132081 L156.15205,2.83672555 L152.274673,2.83672555 L152.274673,11.9547324 L155.856155,11.9547324 L155.856155,14.5076193 L152.274673,14.5076193 L152.274673,14.5076193 Z"/>
    </g>
</svg>